REM DIRINDEX 1\2\6,1\2\7,1\2\8,1\3\9,1\3\10,1\3\11,1\4\12,1\4\13,1\4\14,1\5\15,1\5\16,1\5\17,1\5\18
REM DIRNAME cjc019,folder01,folder02,folder03,folder04,folder05,folder06,folder07,folder08,folder09,folder10,folder11,folder12,folder13,folder14,folder15,folder16,folder17
TITLE ""
FILE "2Q_t_1003-1020.mp3" MP3
  TRACK 01 AUDIO
    TITLE "13:cjc019_4068"
    INDEX 01 00:00:00
  TRACK 02 AUDIO
    TITLE "0:"
    INDEX 01 00:01:15
  TRACK 03 AUDIO
    TITLE "14:cjc019_4069"
    INDEX 01 00:01:71
  TRACK 04 AUDIO
    TITLE "0:"
    INDEX 01 00:04:46
  TRACK 05 AUDIO
    TITLE "13:cjc019_4070"
    INDEX 01 00:05:18
  TRACK 06 AUDIO
    TITLE "0:"
    INDEX 01 00:06:43
  TRACK 07 AUDIO
    TITLE "14:cjc019_4071"
    INDEX 01 00:07:13
  TRACK 08 AUDIO
    TITLE "0:"
    INDEX 01 00:08:15
  TRACK 09 AUDIO
    TITLE "13:cjc019_4072"
    INDEX 01 00:08:68
  TRACK 10 AUDIO
    TITLE "0:"
    INDEX 01 00:10:02
  TRACK 11 AUDIO
    TITLE "14:cjc019_4073"
    INDEX 01 00:10:55
  TRACK 12 AUDIO
    TITLE "0:"
    INDEX 01 00:14:49
  TRACK 13 AUDIO
    TITLE "13:cjc019_4074"
    INDEX 01 00:15:23
  TRACK 14 AUDIO
    TITLE "0:"
    INDEX 01 00:16:44
  TRACK 15 AUDIO
    TITLE "14:cjc019_4075"
    INDEX 01 00:17:23
  TRACK 16 AUDIO
    TITLE "0:"
    INDEX 01 00:20:65
  TRACK 17 AUDIO
    TITLE "13:cjc019_4076"
    INDEX 01 00:21:43
  TRACK 18 AUDIO
    TITLE "0:"
    INDEX 01 00:23:03
  TRACK 19 AUDIO
    TITLE "14:cjc019_4077"
    INDEX 01 00:23:57
  TRACK 20 AUDIO
    TITLE "0:"
    INDEX 01 00:28:27
  TRACK 21 AUDIO
    TITLE "13:cjc019_4078"
    INDEX 01 00:28:74
  TRACK 22 AUDIO
    TITLE "0:"
    INDEX 01 00:30:22
  TRACK 23 AUDIO
    TITLE "14:cjc019_4079"
    INDEX 01 00:31:12
  TRACK 24 AUDIO
    TITLE "0:"
    INDEX 01 00:32:29
  TRACK 25 AUDIO
    TITLE "13:cjc019_4080"
    INDEX 01 00:33:09
  TRACK 26 AUDIO
    TITLE "0:"
    INDEX 01 00:34:16
  TRACK 27 AUDIO
    TITLE "14:cjc019_4081"
    INDEX 01 00:34:73
  TRACK 28 AUDIO
    TITLE "0:"
    INDEX 01 00:38:26
  TRACK 29 AUDIO
    TITLE "13:cjc019_4082"
    INDEX 01 00:39:03
  TRACK 30 AUDIO
    TITLE "0:"
    INDEX 01 00:40:21
  TRACK 31 AUDIO
    TITLE "14:cjc019_4083"
    INDEX 01 00:41:06
  TRACK 32 AUDIO
    TITLE "0:"
    INDEX 01 00:42:27
  TRACK 33 AUDIO
    TITLE "13:cjc019_4084"
    INDEX 01 00:43:07
  TRACK 34 AUDIO
    TITLE "0:"
    INDEX 01 00:44:26
  TRACK 35 AUDIO
    TITLE "14:cjc019_4085"
    INDEX 01 00:45:20
  TRACK 36 AUDIO
    TITLE "0:"
    INDEX 01 00:48:32
  TRACK 37 AUDIO
    TITLE "13:cjc019_4086"
    INDEX 01 00:49:08
  TRACK 38 AUDIO
    TITLE "0:"
    INDEX 01 00:50:21
  TRACK 39 AUDIO
    TITLE "14:cjc019_4087"
    INDEX 01 00:50:74
  TRACK 40 AUDIO
    TITLE "0:"
    INDEX 01 00:52:20
  TRACK 41 AUDIO
    TITLE "13:cjc019_4088"
    INDEX 01 00:52:73
  TRACK 42 AUDIO
    TITLE "0:"
    INDEX 01 00:54:19
  TRACK 43 AUDIO
    TITLE "14:cjc019_4089"
    INDEX 01 00:55:01
  TRACK 44 AUDIO
    TITLE "0:"
    INDEX 01 00:57:39
  TRACK 45 AUDIO
    TITLE "13:cjc019_4090"
    INDEX 01 00:58:13
  TRACK 46 AUDIO
    TITLE "0:"
    INDEX 01 00:59:22
  TRACK 47 AUDIO
    TITLE "14:cjc019_4091"
    INDEX 01 01:00:06
  TRACK 48 AUDIO
    TITLE "0:"
    INDEX 01 01:02:44
  TRACK 49 AUDIO
    TITLE "13:cjc019_4092"
    INDEX 01 01:03:22
  TRACK 50 AUDIO
    TITLE "0:"
    INDEX 01 01:04:47
  TRACK 51 AUDIO
    TITLE "14:cjc019_4093"
    INDEX 01 01:05:24
  TRACK 52 AUDIO
    TITLE "0:"
    INDEX 01 01:08:70
  TRACK 53 AUDIO
    TITLE "13:cjc019_4094"
    INDEX 01 01:09:54
  TRACK 54 AUDIO
    TITLE "0:"
    INDEX 01 01:11:07
  TRACK 55 AUDIO
    TITLE "14:cjc019_4095"
    INDEX 01 01:11:62
  TRACK 56 AUDIO
    TITLE "0:"
    INDEX 01 01:13:20
  TRACK 57 AUDIO
    TITLE "13:cjc019_4096"
    INDEX 01 01:13:69
  TRACK 58 AUDIO
    TITLE "0:"
    INDEX 01 01:14:68
  TRACK 59 AUDIO
    TITLE "14:cjc019_4097"
    INDEX 01 01:15:72
  TRACK 60 AUDIO
    TITLE "0:"
    INDEX 01 01:17:02
  TRACK 61 AUDIO
    TITLE "13:cjc019_4098"
    INDEX 01 01:17:59
  TRACK 62 AUDIO
    TITLE "0:"
    INDEX 01 01:18:72
  TRACK 63 AUDIO
    TITLE "14:cjc019_4099"
    INDEX 01 01:19:62
  TRACK 64 AUDIO
    TITLE "0:"
    INDEX 01 01:21:31
  TRACK 65 AUDIO
    TITLE "13:cjc019_4100"
    INDEX 01 01:22:11
  TRACK 66 AUDIO
    TITLE "0:"
    INDEX 01 01:23:34
  TRACK 67 AUDIO
    TITLE "14:cjc019_4101"
    INDEX 01 01:24:20
  TRACK 68 AUDIO
    TITLE "0:"
    INDEX 01 01:26:72
  TRACK 69 AUDIO
    TITLE "13:cjc019_4102"
    INDEX 01 01:27:46
  TRACK 70 AUDIO
    TITLE "0:"
    INDEX 01 01:28:65
  TRACK 71 AUDIO
    TITLE "14:cjc019_4103"
    INDEX 01 01:29:48
  TRACK 72 AUDIO
    TITLE "0:"
    INDEX 01 01:31:49
